<svg xmlns="http://www.w3.org/2000/svg" xmlns:xlink="http://www.w3.org/1999/xlink" width="1024" height="768" viewBox="0 0 1024 768"><path fill="#fff" d="M0 0h1024v768h-1024z"/><defs><path id="a" d="M0 0h1024v768h-1024z"/></defs><clipPath id="b"><use xlink:href="#a" overflow="visible"/></clipPath><path clip-path="url(#b)" fill="#2466B1" d="M0 0h1024v768h-1024z"/><defs><path id="c" d="M555.413 502.562h228.743v228.875h-228.743z"/></defs><clipPath id="d"><use xlink:href="#c" overflow="visible"/></clipPath><g clip-path="url(#d)"><defs><path id="e" d="M577.474 504.153h186.807v225.693h-186.807z"/></defs><clipPath id="f"><use xlink:href="#e" overflow="visible"/></clipPath><path clip-path="url(#f)" fill-rule="evenodd" clip-rule="evenodd" fill="#fff" d="M660.334 558.023c-.367 3.622-1.421 7.128-3.112 10.349l27.44 28.035c3.926-1.893 8.197-2.944 12.574-3.097l11.427-37.674c-2.918-2.165-5.402-4.872-7.312-7.964l-41.017 10.351zm-4.574-18.637l41.605-10.499c1.867-13.996 13.858-24.733 28.276-24.733 15.752 0 28.528 12.784 28.528 28.545 0 15.37-12.149 27.907-27.358 28.521l-11.274 37.166c8.89 5.778 14.368 15.698 14.368 26.485 0 9.053-3.854 17.56-10.495 23.514l12.344 24.652c1.322-.188 2.659-.28 3.999-.28 15.752 0 28.528 12.784 28.528 28.545s-12.776 28.545-28.528 28.545c-15.753 0-28.53-12.784-28.53-28.545 0-7.3 2.77-14.233 7.69-19.494l-12.809-25.581c-1.247.149-2.503.225-3.761.225-6.391 0-12.558-1.918-17.778-5.488l-14.503 12.78c.098.75.146 1.508.146 2.268 0 9.615-7.795 17.417-17.406 17.417s-17.407-7.802-17.407-17.417c0-9.617 7.796-17.418 17.407-17.418 1.659 0 3.301.235 4.883.696l15.107-13.312c-.77-2.047-1.32-4.168-1.649-6.331l-36.015-4.854c-4.928 9.163-14.536 15.019-25.127 15.019-15.752 0-28.528-12.784-28.528-28.545s12.776-28.544 28.528-28.544c13.859 0 25.562 9.946 28.043 23.28l36.009 4.854c.24-.483.492-.961.757-1.433l-27.515-28.111c-3.57 1.551-7.422 2.35-11.344 2.35-15.752 0-28.528-12.783-28.528-28.545 0-15.761 12.776-28.545 28.528-28.545 9.67 0 18.57 4.879 23.809 12.813"/></g><defs><path id="g" d="M262.027 520.471h171.072v171.071h-171.072z"/></defs><clipPath id="h"><use xlink:href="#g" overflow="visible"/></clipPath><g clip-path="url(#h)"><defs><path id="i" d="M262.027 520.471h171.072v171.059h-171.072z"/></defs><clipPath id="j"><use xlink:href="#i" overflow="visible"/></clipPath><path clip-path="url(#j)" fill="#fff" d="M305.176 595.07l-24.48-42.4c15.673-19.624 39.8-32.199 66.867-32.199 31.313 0 58.691 16.829 73.596 41.933h-69.793c-1.253-.109-2.521-.168-3.803-.168-20.36-.001-37.518 13.974-42.387 32.834m73.011-20.304h49.025c3.799 9.678 5.887 20.215 5.887 31.24 0 46.916-37.773 85.002-84.564 85.523l34.981-60.59c4.925-7.079 7.817-15.675 7.817-24.934 0-12.223-5.039-23.291-13.146-31.239m-61.697 31.24c0-17.134 13.939-31.073 31.073-31.073s31.074 13.939 31.074 31.073-13.939 31.074-31.074 31.074c-17.134 0-31.073-13.94-31.073-31.074m42.798 42.174l-24.488 42.413c-41.186-6.162-72.773-41.684-72.773-84.587 0-15.239 3.99-29.544 10.976-41.937l34.921 60.486c6.994 14.887 22.131 25.221 39.639 25.221 4.06 0 7.992-.557 11.725-1.596"/></g><defs><path id="k" d="M722.033 107.681h171.06v171.059h-171.06z"/></defs><clipPath id="l"><use xlink:href="#k" overflow="visible"/></clipPath><g clip-path="url(#l)"><defs><path id="m" d="M743.416 107.681h128.295v171.059h-128.295z"/></defs><clipPath id="n"><use xlink:href="#m" overflow="visible"/></clipPath><path clip-path="url(#n)" fill="#FFFEFE" d="M807.563 278.74c-35.42 0-64.147-14.358-64.147-32.073v-18.047c0 17.726 28.728 28.738 64.147 28.738s64.146-11.012 64.146-28.738v18.047c.001 17.715-28.726 32.073-64.146 32.073m0-32.073c-35.42 0-64.147-14.358-64.147-32.074v-18.047c0 17.726 28.728 28.738 64.147 28.738s64.146-11.012 64.146-28.738v18.047c.001 17.715-28.726 32.074-64.146 32.074m0-32.074c-35.42 0-64.147-14.358-64.147-32.074v-18.046c0 17.726 28.728 28.738 64.147 28.738s64.146-11.012 64.146-28.738v18.046c.001 17.715-28.726 32.074-64.146 32.074m0-32.074c-35.42 0-64.147-14.358-64.147-32.074v-10.691c0-17.715 28.728-32.074 64.147-32.074s64.146 14.358 64.146 32.074v10.691c.001 17.716-28.726 32.074-64.146 32.074"/></g><defs><path id="o" d="M0 0h1024v768h-1024z"/></defs><clipPath id="p"><use xlink:href="#o" overflow="visible"/></clipPath><path clip-path="url(#p)" fill="#fff" d="M18 399h988v34h-988z"/><path clip-path="url(#p)" stroke="#fff" stroke-width="6" fill="none" d="M189 373v-60"/><path clip-path="url(#p)" fill="#fff" d="M201 316l-12-24-12 24zM177 370l12 24 12-24z"/><path clip-path="url(#p)" stroke="#fff" stroke-width="6" fill="none" d="M522 373v-60"/><path clip-path="url(#p)" fill="#fff" d="M534 316l-12-24-12 24zM510 370l12 24 12-24z"/><path clip-path="url(#p)" stroke="#fff" stroke-width="6" fill="none" d="M808 373v-60"/><path clip-path="url(#p)" fill="#fff" d="M820 316l-12-24-12 24zM796 370l12 24 12-24z"/><path clip-path="url(#p)" stroke="#fff" stroke-width="6" fill="none" d="M348 492v-33"/><path clip-path="url(#p)" fill="#fff" d="M360 462l-12-24-12 24zM336 489l12 24 12-24z"/><path clip-path="url(#p)" stroke="#fff" stroke-width="6" fill="none" d="M671 492v-33"/><path clip-path="url(#p)" fill="#fff" d="M683 462l-12-24-12 24zM659 489l12 24 12-24z"/><defs><path id="q" d="M48.236 63.156h281.71v281.711h-281.71z"/></defs><clipPath id="r"><use xlink:href="#q" overflow="visible"/></clipPath><g clip-path="url(#r)"><defs><path id="s" d="M53.641 92.867h269.845v185.973h-269.845z"/></defs><clipPath id="t"><use xlink:href="#s" overflow="visible"/></clipPath><path clip-path="url(#t)" fill="#fff" d="M280.427 166.596c1.651-28.061-17.606-49.519-44.017-49.519-8.803 0-17.057 2.201-24.76 6.603-14.306-19.808-34.113-30.812-56.122-30.812s-42.367 11.004-54.471 29.162c-9.354 14.306-12.655 31.362-8.253 48.419-33.013 14.306-41.816 41.816-38.515 62.174 3.852 26.411 25.31 45.668 50.62 45.668 1.1 0 98.488.55 157.912.55 39.065 0 58.873-27.511 60.523-52.821 1.651-23.109-11.004-50.07-42.917-59.424m20.908 57.773c-1.101 15.956-13.755 32.463-38.515 32.463-58.874 0-156.812-.55-157.912-.55-16.507 0-26.961-13.755-29.162-26.961-2.751-18.707 9.904-34.664 34.113-41.816 4.952-1.65 9.904-7.703 7.153-14.856-13.205-31.912 12.105-57.772 38.515-57.772 17.607 0 33.013 11.004 43.467 30.262 3.301 6.053 12.104 8.253 17.607 2.751 5.502-5.502 12.655-8.804 19.808-8.804 17.057 0 25.31 15.406 20.908 33.563-1.65 6.603 3.301 12.655 8.804 13.206 25.86 3.851 36.315 22.008 35.214 38.514M151.676 125.88c-22.559 2.201-29.711 20.358-28.611 31.913.55 4.952 4.402 8.803 9.354 8.803 6.052 0 10.454-4.952 9.904-10.454 0-2.201 0-9.904 11.004-11.004 5.502-.55 9.354-4.952 8.803-10.454-.55-5.502-4.951-9.354-10.454-8.804"/></g><defs><path id="u" d="M381.645 63.156h281.711v281.711h-281.711z"/></defs><clipPath id="v"><use xlink:href="#u" overflow="visible"/></clipPath><g clip-path="url(#v)"><defs><path id="w" d="M387.05 92.867h269.845v185.973h-269.845z"/></defs><clipPath id="x"><use xlink:href="#w" overflow="visible"/></clipPath><path clip-path="url(#x)" fill="#fff" d="M613.837 166.596c1.65-28.061-17.607-49.519-44.018-49.519-8.804 0-17.057 2.201-24.76 6.603-14.306-19.808-34.113-30.812-56.122-30.812s-42.367 11.004-54.472 29.162c-9.354 14.306-12.655 31.362-8.253 48.419-33.013 14.306-41.816 41.816-38.515 62.174 3.852 26.411 25.31 45.668 50.62 45.668 1.101 0 98.489.55 157.912.55 39.065 0 58.873-27.511 60.524-52.821 1.651-23.109-11.004-50.07-42.916-59.424m20.908 57.773c-1.101 15.956-13.756 32.463-38.516 32.463-58.873 0-156.812-.55-157.912-.55-16.506 0-26.96-13.755-29.161-26.961-2.751-18.707 9.904-34.664 34.113-41.816 4.952-1.65 9.904-7.703 7.153-14.856-13.205-31.912 12.104-57.772 38.515-57.772 17.607 0 33.013 11.004 43.467 30.262 3.302 6.053 12.105 8.253 17.607 2.751 5.502-5.502 12.654-8.804 19.808-8.804 17.057 0 25.31 15.406 20.908 33.563-1.65 6.603 3.302 12.655 8.804 13.206 25.86 3.851 36.315 22.008 35.214 38.514M485.086 125.88c-22.559 2.201-29.712 20.358-28.611 31.913.55 4.952 4.402 8.803 9.354 8.803 6.053 0 10.454-4.952 9.904-10.454 0-2.201 0-9.904 11.004-11.004 5.502-.55 9.354-4.952 8.803-10.454-.55-5.502-4.952-9.354-10.454-8.804"/></g></svg>